# xmcd
#
# Track frame offsets:
#	150
#	17720
#	31972
#	47937
#	67627
#	85550
#	99954
#	113340
#	130065
#	146035
#	165250
#	182307
#	200532
#	217684
#	234645
#
# Disc length: 3340 seconds
#
# Revision: 1
# Processed by: cddbd v1.5.2PL0 Copyright (c) Steve Scherf et al.
# Submitted via: EZCDAudioConverter 4.0.4.1
#
DISCID=ad0d0a0f
DTITLE=José José - Lo Mejor de Los 3 Grandes [CD2]
DYEAR=1996
DGENRE=Balada
TTITLE0=Me Basta
TTITLE1=Y Para Que
TTITLE2=New York, New York
TTITLE3=El Amor Acaba
TTITLE4=He Renunciado a Tí
TTITLE5=Y Que
TTITLE6=Me Vas a Hechar de Menos
TTITLE7=¿Y Quien Puede Ser?
TTITLE8=Soy Asi
TTITLE9=Como Tu
TTITLE10=Amnesia
TTITLE11=40 y 20
TTITLE12=Asi de Facil
TTITLE13=Dejalo Todo
TTITLE14=No Valio la Pena
EXTD=
EXTT0=
EXTT1=
EXTT2=
EXTT3=
EXTT4=
EXTT5=
EXTT6=
EXTT7=
EXTT8=
EXTT9=
EXTT10=
EXTT11=
EXTT12=
EXTT13=
EXTT14=
PLAYORDER=
